<mxfile host="app.diagrams.net" modified="2024-01-22T15:49:00.927Z" agent="Mozilla/5.0 (Macintosh; Intel Mac OS X 10_15_7) AppleWebKit/537.36 (KHTML, like Gecko) Chrome/120.0.0.0 Safari/537.36" etag="nXTiNJsJyrqlEzMStIYF" version="22.1.21" type="device">
  <diagram id="07fea595-8f29-1299-0266-81d95cde20df" name="Page-1">
    <mxGraphModel dx="-501" dy="176" grid="1" gridSize="10" guides="1" tooltips="1" connect="1" arrows="1" fold="1" page="1" pageScale="1" pageWidth="1169" pageHeight="827" background="none" math="0" shadow="0">
      <root>
        <mxCell id="0" />
        <mxCell id="1" parent="0" />
        <mxCell id="723" value="" style="whiteSpace=wrap;fillColor=#12AAB5;gradientColor=none;gradientDirection=east;strokeColor=none;html=1;fontColor=#23445d;" parent="1" vertex="1">
          <mxGeometry x="2752" y="1089.5" width="120" height="259" as="geometry" />
        </mxCell>
        <mxCell id="727" value="" style="edgeStyle=none;html=1;fontColor=#000000;strokeWidth=3;strokeColor=#000000;" parent="1" edge="1">
          <mxGeometry width="100" height="100" relative="1" as="geometry">
            <mxPoint x="2692" y="1348.5" as="sourcePoint" />
            <mxPoint x="2694" y="989.5" as="targetPoint" />
          </mxGeometry>
        </mxCell>
        <mxCell id="734" value="" style="edgeStyle=none;html=1;fontColor=#000000;strokeWidth=3;strokeColor=#000000;" parent="1" edge="1">
          <mxGeometry width="100" height="100" relative="1" as="geometry">
            <mxPoint x="2692" y="1348.5" as="sourcePoint" />
            <mxPoint x="2964" y="1348.5" as="targetPoint" />
          </mxGeometry>
        </mxCell>
        <mxCell id="735" value="Sprints" style="text;spacingTop=-5;html=1;fontSize=18;fontStyle=0;points=[];strokeColor=none;" parent="1" vertex="1">
          <mxGeometry x="2974" y="1336.5" width="80" height="20" as="geometry" />
        </mxCell>
        <mxCell id="737" value="Sprint1" style="text;spacingTop=-5;align=center;verticalAlign=middle;fontStyle=0;html=1;fontSize=18;points=[];strokeColor=none;" parent="1" vertex="1">
          <mxGeometry x="2752" y="1386.5" width="120" height="30" as="geometry" />
        </mxCell>
        <mxCell id="745" value="NÂº de Tarefas" style="text;spacingTop=-5;html=1;fontSize=18;fontStyle=0;points=[]" parent="1" vertex="1">
          <mxGeometry x="2644" y="959.5" width="80" height="20" as="geometry" />
        </mxCell>
        <mxCell id="746" value="5" style="text;spacingTop=-5;align=center;verticalAlign=middle;fontStyle=0;html=1;fontSize=18;points=[]" parent="1" vertex="1">
          <mxGeometry x="2630" y="1206.5000000000002" width="30" height="129.99999999999977" as="geometry" />
        </mxCell>
        <mxCell id="747" value="10" style="text;spacingTop=-5;align=center;verticalAlign=middle;fontStyle=0;html=1;fontSize=18;points=[]" parent="1" vertex="1">
          <mxGeometry x="2630" y="1158.5" width="30" height="60" as="geometry" />
        </mxCell>
        <mxCell id="748" value="15" style="text;spacingTop=-5;align=center;verticalAlign=middle;fontStyle=0;html=1;fontSize=18;points=[]" parent="1" vertex="1">
          <mxGeometry x="2634" y="1089.5" width="26" height="40" as="geometry" />
        </mxCell>
        <mxCell id="GDj1hMKmHIbwkr3ay9AX-755" value="" style="endArrow=none;html=1;rounded=0;" edge="1" parent="1">
          <mxGeometry width="50" height="50" relative="1" as="geometry">
            <mxPoint x="2672" y="1269.5" as="sourcePoint" />
            <mxPoint x="2712" y="1269.5" as="targetPoint" />
          </mxGeometry>
        </mxCell>
        <mxCell id="GDj1hMKmHIbwkr3ay9AX-756" value="" style="endArrow=none;html=1;rounded=0;" edge="1" parent="1">
          <mxGeometry width="50" height="50" relative="1" as="geometry">
            <mxPoint x="2672" y="1189.5" as="sourcePoint" />
            <mxPoint x="2712" y="1189.5" as="targetPoint" />
          </mxGeometry>
        </mxCell>
        <mxCell id="GDj1hMKmHIbwkr3ay9AX-757" value="" style="endArrow=none;html=1;rounded=0;" edge="1" parent="1">
          <mxGeometry width="50" height="50" relative="1" as="geometry">
            <mxPoint x="2672" y="1109.5" as="sourcePoint" />
            <mxPoint x="2712" y="1109.5" as="targetPoint" />
          </mxGeometry>
        </mxCell>
        <mxCell id="GDj1hMKmHIbwkr3ay9AX-758" value="" style="endArrow=none;html=1;rounded=0;" edge="1" parent="1">
          <mxGeometry width="50" height="50" relative="1" as="geometry">
            <mxPoint x="2672" y="1029.5" as="sourcePoint" />
            <mxPoint x="2712" y="1029.5" as="targetPoint" />
          </mxGeometry>
        </mxCell>
        <mxCell id="GDj1hMKmHIbwkr3ay9AX-759" value="20" style="text;spacingTop=-5;align=center;verticalAlign=middle;fontStyle=0;html=1;fontSize=18;points=[]" vertex="1" parent="1">
          <mxGeometry x="2634" y="1009.5" width="26" height="40" as="geometry" />
        </mxCell>
        <mxCell id="GDj1hMKmHIbwkr3ay9AX-760" value="Planeado" style="text;spacingTop=-5;align=center;verticalAlign=middle;fontStyle=0;html=1;fontSize=18;points=[];strokeColor=none;" vertex="1" parent="1">
          <mxGeometry x="2752" y="1356.5" width="120" height="30" as="geometry" />
        </mxCell>
        <mxCell id="GDj1hMKmHIbwkr3ay9AX-762" value="" style="endArrow=none;dashed=1;html=1;dashPattern=1 3;strokeWidth=2;rounded=0;entryX=0;entryY=0;entryDx=0;entryDy=0;" edge="1" parent="1" target="723">
          <mxGeometry width="50" height="50" relative="1" as="geometry">
            <mxPoint x="2694" y="1089.5" as="sourcePoint" />
            <mxPoint x="2794" y="1039.5" as="targetPoint" />
          </mxGeometry>
        </mxCell>
        <mxCell id="GDj1hMKmHIbwkr3ay9AX-763" value="16" style="text;spacingTop=-5;align=center;verticalAlign=middle;fontStyle=0;html=1;fontSize=18;points=[]" vertex="1" parent="1">
          <mxGeometry x="2660" y="1069.5" width="26" height="40" as="geometry" />
        </mxCell>
      </root>
    </mxGraphModel>
  </diagram>
</mxfile>
